<svg fill="none" height="32" viewBox="0 0 32 32" width="32" xmlns="http://www.w3.org/2000/svg"><path d="m11.6399 29c2.392 0 4.3333-1.9413 4.3333-4.3333v-4.3334h-4.3333c-2.39196 0-4.33326 1.9413-4.33326 4.3334 0 2.392 1.9413 4.3333 4.33326 4.3333z" fill="#0acf83"/><path d="m7.30664 15.9998c0-2.392 1.9413-4.3333 4.33326-4.3333h4.3333v8.6665h-4.3333c-2.39196 0-4.33326-1.9413-4.33326-4.3332z" fill="#a259ff"/><path d="m7.30664 7.3333c0-2.39198 1.9413-4.3333 4.33326-4.3333h4.3333v8.6666h-4.3333c-2.39196 0-4.33326-1.94132-4.33326-4.3333z" fill="#f24e1e"/><path d="m15.9734 3h4.3333c2.392 0 4.3334 1.94132 4.3334 4.3333s-1.9414 4.3333-4.3334 4.3333h-4.3333z" fill="#ff7262"/><path d="m24.6401 15.9998c0 2.3919-1.9414 4.3332-4.3334 4.3332s-4.3333-1.9413-4.3333-4.3332c0-2.392 1.9413-4.3333 4.3333-4.3333s4.3334 1.9413 4.3334 4.3333z" fill="#1abcfe"/></svg>