<svg fill="none" height="32" viewBox="0 0 32 32" width="32" xmlns="http://www.w3.org/2000/svg"><path d="m0 8c0-4.41828 3.58172-8 8-8h16c4.4183 0 8 3.58172 8 8v16c0 4.4183-3.5817 8-8 8h-16c-4.41828 0-8-3.5817-8-8z" fill="#f0db4f"/><path d="m27.1262 22.9014c-.1879-1.1711-.9515-2.1543-3.2131-3.0716-.7856-.3611-1.6615-.6197-1.9226-1.215-.0927-.3465-.1049-.5416-.0463-.7515.1683-.6806.9808-.8929 1.6249-.6977.4147.1391.8075.4587 1.0442.9686 1.1076-.7173 1.1052-.7124 1.8786-1.2052-.283-.4392-.4343-.6417-.6197-.8296-.6661-.7441-1.5737-1.1271-3.0253-1.0978-.2513.0317-.505.0658-.7563.0976-.7246.1829-1.4151.5635-1.8201 1.0734-1.215 1.3785-.8685 3.7914.61 4.7844 1.4565 1.093 3.5961 1.3418 3.8694 2.3641.2659 1.2516-.9198 1.6565-2.0982 1.5126-.8685-.1805-1.3516-.6221-1.8737-1.4248-.9612.5563-.9612.5563-1.9493 1.1247.2342.5124.4806.7441.8734 1.1882 1.8591 1.8859 6.5116 1.7932 7.346-1.0613.0342-.0976.2587-.7515.0781-1.7591zm-9.6126-7.7486h-2.4007c0 2.0738-.0097 4.1329-.0097 6.2067 0 1.3199.0683 2.53-.1464 2.9008-.3513.7295-1.2613.6393-1.6761.4977-.4221-.2074-.6368-.5026-.8856-.9197-.0683-.1196-.1196-.2123-.1367-.2196-.6514.3977-1.3003.7978-1.9518 1.1955.3246.666.8027 1.2442 1.4151 1.6199.9149.549 2.1445.7173 3.4303.4221.8368-.244 1.559-.749 1.9371-1.5175.5465-1.0076.4294-2.2275.4245-3.5766.0122-2.2007 0-4.4013 0-6.6093z" fill="#323330"/></svg>