<svg fill="none" height="32" viewBox="0 0 32 32" width="32" xmlns="http://www.w3.org/2000/svg"><g fill="#007fff"><path d="m3.00019 6.29688c3.12537 1.81829 6.25116 3.63575 9.37571 5.45532-.0025 1.212 0 2.4237-.0013 3.6357-2.082-1.2145-4.16657-2.4241-6.24904-3.6374-.00084 2.4241-.00042 4.8487-.00042 7.2728-1.04123-.6071-2.08414-1.2112-3.12495-1.8196 0-3.6353-.00042-7.27107 0-10.90682z"/><path d="m12.375 19.0283.0083.0059c.41.2702.8471.498 1.2679.7514.6067.3478 1.2042.7136 1.8175 1.0488 1.0612.592 2.1037 1.2196 3.1575 1.8263-.0021 1.2121 0 2.4241-.0009 3.6362-2.0824-1.2142-4.1666-2.4246-6.2499-3.637-.0004-1.2108.0004-2.4212-.0004-3.6316z"/><path d="m12.3759 11.7522c3.1245-1.81789 6.2505-3.63504 9.3742-5.45418.0008 3.63618.0004 7.27238 0 10.90898-2.0412 1.1877-4.0828 2.375-6.1232 3.5636-.0517.0226-.0965.0768-.1582.0638-.6133-.3352-1.2108-.701-1.8175-1.0488-.4208-.2534-.8579-.4812-1.2679-.7514.4104-.2706.8503-.4994 1.2719-.7536 1.6567-.9641 3.3137-1.927 4.97-2.8923.0004-1.2117.0012-2.4233-.0005-3.635-2.0833 1.2113-4.1659 2.4247-6.2501 3.6346.0013-1.212-.0012-2.4237.0013-3.6357z"/><path d="m24.8757 8.11464c1.0429-.60246 2.082-1.21164 3.1237-1.81662.0004 1.21206.0012 2.42412-.0004 3.6366-1.0408.60578-2.0812 1.21328-3.1237 1.81618-.0004-1.212-.0013-2.4241.0004-3.63616z"/><path d="m24.875 15.3887c1.0417-.6058 2.0842-1.2112 3.125-1.8187-.0004 2.425.0012 4.8499-.0013 7.2745-3.1249 1.817-6.248 3.6366-9.3734 5.4524.0009-1.2121-.0012-2.4241.0009-3.6362 2.0837-1.2112 4.1672-2.4225 6.2488-3.637 0-1.2117 0-2.4233 0-3.635z"/></g></svg>