<svg fill="none" height="32" viewBox="0 0 32 32" width="32" xmlns="http://www.w3.org/2000/svg"><g fill="#61dafb"><path d="m16.3304 18.8099c1.3719 0 2.484-1.124 2.484-2.5104 0-1.3865-1.1121-2.5104-2.484-2.5104s-2.484 1.1239-2.484 2.5104c0 1.3864 1.1121 2.5104 2.484 2.5104z"/><path clip-rule="evenodd" d="m29.6667 16.2996c0-1.7853-2.2123-3.4772-5.6041-4.5264.7828-3.49372.4349-6.2733-1.0979-7.16321-.3519-.2079-.7631-.30683-1.2122-.30762v-.00549c-1.4947 0-3.4515 1.07667-5.43 2.94438-1.9786-1.85672-3.9354-2.92241-5.4301-2.92241v.00549c-.4566 0-.8697.09888-1.22845.30762-1.52738.88991-1.86982 3.664-1.08167 7.14674-3.38089 1.0547-5.58228 2.7411-5.58228 4.5209 0 1.7853 2.21226 3.4772 5.60402 4.5265-.78271 3.4937-.43484 6.2732 1.09798 7.1632.3533.2087.7664.3076 1.223.3076 1.4948 0 3.4515-1.0767 5.4301-2.9444 1.9785 1.8567 3.9353 2.9224 5.4301 2.9224.4565 0 .8696-.0989 1.2284-.3076 1.5274-.8899 1.8698-3.664 1.0817-7.1467 3.37-1.0492 5.5714-2.7412 5.5714-4.521zm-12.48-8.2014c1.7692-1.66179 3.4299-2.57341 4.5604-2.57632v.00548c.25 0 .4512.04944.6197.14283.7392.42847 1.0599 2.05996.8099 4.15839-.0598.51632-.1577 1.06022-.2773 1.61502-1.0653-.2637-2.2285-.4669-3.4515-.5988-.7338-1.01622-1.4948-1.93909-2.2612-2.7466zm-6.2943-2.55436c1.1251 0 2.7938.90639 4.5658 2.55986-.761.8075-1.5219 1.72488-2.2449 2.7411-1.2284.1319-2.3916.3351-3.45695.6043-.12501-.5493-.21742-1.0822-.28265-1.59306-.25546-2.09842.0598-3.72991.7936-4.16388.1631-.09888.375-.14282.6251-.14282zm11.6994 7.09066c-.2011.7086-.4511 1.4392-.7338 2.1698-.2228-.4394-.4565-.8789-.712-1.3184-.25-.4394-.5164-.8679-.7827-1.2854.7718.1154 1.5165.2582 2.2285.434zm-3.799 7.9479c.4512-.6537.886-1.3568 1.31-2.0984.4077-.7196.7827-1.4557 1.1251-2.1918-.3424-.7361-.7174-1.4667-1.1305-2.1863-.424-.7361-.8643-1.4338-1.3154-2.0875-.8045-.0659-1.6253-.1043-2.446-.1043-.8262 0-1.647.0384-2.4569.1098-.4511.6537-.886 1.3569-1.3099 2.0984-.4077.7197-.7882 1.4558-1.1252 2.1919.3424.736.7175 1.4667 1.1306 2.1863.424.7361.8642 1.4337 1.3154 2.0874.8045.0659 1.6252.1044 2.446.1044.8262 0 1.6469-.0385 2.4568-.1099zm3.0663-2.809c.2935.7361.5436 1.4722.7501 2.1864-.712.1757-1.4621.3241-2.2394.4394.2663-.423.5327-.8569.7827-1.3019.25-.4394.4838-.8844.7066-1.3239zm-7.0232 4.1016c.5001.6427 1.0056 1.2305 1.5111 1.7578.5001-.5273 1.0056-1.1151 1.4948-1.7578-.4947.0275-1.0002.0385-1.5111.0385-.5055 0-1.0056-.0165-1.4948-.0385zm-2.537-1.4782c-.7719-.1154-1.5165-.2582-2.2286-.434.2011-.7086.4512-1.4392.7338-2.1698.2229.4394.4566.8789.7121 1.3183.2554.4395.5163.868.7827 1.2855zm5.5299-9.6741c-.5001-.6427-1.0056-1.2305-1.5111-1.75786-.5001.52736-1.0056 1.11516-1.4948 1.75786.4946-.0275 1.0002-.0385 1.5111-.0385.5055 0 1.0056.0165 1.4948.0385zm-5.5321 1.4778c-.2663.423-.5327.857-.7827 1.3019-.25.4395-.4838.8789-.7066 1.3184-.2935-.7361-.5436-1.4722-.7501-2.1863.712-.1703 1.4621-.3186 2.2394-.434zm-8.09227 4.1027c0 .8624 1.24473 1.9501 3.16891 2.7795.47289.2033.98382.3901 1.52194.5603.30439-1.0711.70662-2.1863 1.20672-3.3289-.50554-1.1481-.9132-2.2687-1.22303-3.3453-.52724.1702-1.03818.3515-1.50563.5548-1.92418.824-3.16891 1.9171-3.16891 2.7796zm6.09557 10.6226c-.73926-.4285-1.05996-2.06-.80992-4.1584.05979-.5164.15763-1.0602.27721-1.6151 1.06541.2637 2.22861.467 3.45151.5988.7338 1.0163 1.4948 1.9391 2.2612 2.7466-1.772 1.6645-3.4352 2.5764-4.5658 2.5764-.2446-.0055-.4512-.055-.6142-.1483zm12.0967-.0176c.7337-.4339 1.049-2.0654.7935-4.1638-.0598-.5109-.1576-1.0437-.2826-1.5986-1.0654.2692-2.2286.4725-3.457.6043-.7229 1.0162-1.4839 1.9336-2.2449 2.7411 1.772 1.6535 3.4407 2.5599 4.5659 2.5599.25 0 .462-.044.6251-.1429zm2.8892-7.8265c-.4674.2033-.9784.3845-1.5056.5548-.3098-1.0766-.7175-2.1973-1.223-3.3453.5001-1.1426.9023-2.2578 1.2067-3.329.5381.1703 1.049.3571 1.5274.5604 1.9241.8294 3.1689 1.9171 3.1689 2.7795-.0055.8625-1.2502 1.9556-3.1744 2.7796z" fill-rule="evenodd"/></g></svg>