<svg fill="none" height="32" viewBox="0 0 32 32" width="32" xmlns="http://www.w3.org/2000/svg"><path d="m0 8c0-4.41828 3.58172-8 8-8h16c4.4183 0 8 3.58172 8 8v16c0 4.4183-3.5817 8-8 8h-16c-4.41828 0-8-3.5817-8-8z" fill="#007acc"/><path d="m9.30664 16.2108v1.0569h3.37166v9.5963h2.3926v-9.5963h3.3717v-1.0375c0-.5835 0-1.0568-.0259-1.0698 0-.0195-2.0554-.026-4.5518-.026l-4.53881.0195v1.0634zm15.15316-1.0828c.6614.1556 1.1671.4538 1.621.9272.2399.2593.5965.7132.6225.8299 0 .0389-1.1218.7976-1.8026 1.219-.0259.0195-.1297-.0907-.2334-.2593-.3372-.4799-.6808-.6873-1.219-.7262-.7781-.0519-1.2968.3566-1.2968 1.0374 0 .2075.0389.3242.1167.4928.1751.3566.4993.5706 1.5043 1.0115 1.8544.7975 2.6584 1.3227 3.1447 2.0749.5512.8429.6744 2.1656.3048 3.1577-.415 1.0828-1.4265 1.8155-2.8724 2.0554-.4539.0778-1.4914.0649-1.9777-.0194-1.0374-.1945-2.0295-.7133-2.639-1.3811-.2399-.2594-.7002-.9532-.6743-.9986l.2464-.1556.9726-.5641.7327-.4279.1686.2269c.214.3372.6938.7911.9726.9467.8429.4344 1.9711.3761 2.5288-.1297.2399-.2205.3436-.4539.3436-.7781 0-.2982-.0454-.4344-.1945-.6614-.2075-.2852-.6225-.5187-1.7896-1.0374-1.3422-.5706-1.9128-.9337-2.4445-1.4913-.3047-.3372-.5835-.8624-.7132-1.2968-.0973-.3761-.1297-1.2968-.0389-1.6664.2788-1.2968 1.2579-2.2046 2.6584-2.4639.4539-.0908 1.5238-.0519 1.9712.0648z" fill="#fff"/></svg>